<?xml version="1.0" standalone="no"?><!-- Generator: Gravit.io --><svg xmlns="http://www.w3.org/2000/svg" xmlns:xlink="http://www.w3.org/1999/xlink" style="isolation:isolate" viewBox="196 195 608.0221003432634 594.3108350559986" width="608.0221003432634" height="594.3108350559986"><defs><filter id="KPxucqVvl8xYK6t0EkeVsVSFBv2aR0la" x="-200%" y="-200%" width="400%" height="400%"><feOffset xmlns="http://www.w3.org/2000/svg" in="SourceAlpha" result="offOut" dx="1" dy="0"/><feGaussianBlur xmlns="http://www.w3.org/2000/svg" in="offOut" result="blurOut" stdDeviation="2.5"/><feComponentTransfer xmlns="http://www.w3.org/2000/svg" in="blurOut" result="opacOut"><feFuncA xmlns="http://www.w3.org/2000/svg" type="table" tableValues="0 0.5"/></feComponentTransfer><feBlend xmlns="http://www.w3.org/2000/svg" in="SourceGraphic" in2="opacOut" mode="normal"/></filter></defs><g filter="url(#KPxucqVvl8xYK6t0EkeVsVSFBv2aR0la)"><path d=" M 500 200 C 334 200 200 334 200 500 C 200 632 286 744 406 784 C 422 786.0000000000001 426 778.0000000000001 426 770 L 426 718 C 342 736 324.00000000000006 678 324.00000000000006 678 C 310.00000000000006 643.9999999999999 290.00000000000006 634 290.00000000000006 634 C 262.00000000000006 616 292.00000000000006 616 292.00000000000006 616 C 322 618 338.00000000000006 646 338.00000000000006 646 C 364.00000000000006 691.9999999999999 408.00000000000006 678 426.0000000000001 670 C 428.0000000000001 650 436.0000000000001 638 446.0000000000001 630 C 380.00000000000006 622 310.00000000000006 596 310.00000000000006 482 C 310.00000000000006 450 322.0000000000001 422 340.00000000000006 402 C 336.0000000000001 394.00000000000006 326.0000000000001 364.00000000000006 342.0000000000001 322 C 342.0000000000001 322 368.0000000000001 314 424.00000000000006 352 C 448.00000000000006 346 474.00000000000006 342 500.00000000000006 342 C 526.0000000000001 342 552.0000000000001 346 576.0000000000001 352 C 634 314 658.0000000000001 322 658.0000000000001 322 C 674 364.00000000000006 664 394.00000000000006 660.0000000000001 402 C 680.0000000000001 422 690.0000000000001 450 690.0000000000001 482 C 690.0000000000001 598 620.0000000000001 622 554.0000000000001 630 C 564.0000000000001 640 574.0000000000001 658 574.0000000000001 686 L 574.0000000000001 768 C 574.0000000000001 776 580.0000000000001 786 594.0000000000001 782 C 714 742 798.0000000000001 630 798.0000000000001 498.00000000000006 C 800 334 666 200 500 200 Z " fill-rule="evenodd" fill="rgb(223,223,223)" stroke-width="20" stroke="rgba(0,0,0,0)" stroke-linejoin="miter" stroke-linecap="butt"/></g></svg>